<?xml version="1.0" encoding="UTF-8" standalone="no"?>
<svg
   width="600"
   height="600"
   viewBox="0 0 595 595"
   version="1.1"
   id="svg6"
   sodipodi:docname="cross_moline.svg"
   inkscape:version="1.2.2 (b0a8486541, 2022-12-01)"
   xmlns:inkscape="http://www.inkscape.org/namespaces/inkscape"
   xmlns:sodipodi="http://sodipodi.sourceforge.net/DTD/sodipodi-0.dtd"
   xmlns="http://www.w3.org/2000/svg"
   xmlns:svg="http://www.w3.org/2000/svg">
  <defs
     id="defs10" />
  <sodipodi:namedview
     id="namedview8"
     pagecolor="#ffffff"
     bordercolor="#666666"
     borderopacity="1.0"
     inkscape:showpageshadow="2"
     inkscape:pageopacity="0.0"
     inkscape:pagecheckerboard="0"
     inkscape:deskcolor="#d1d1d1"
     showgrid="false"
     inkscape:zoom="1.1125147"
     inkscape:cx="460.21864"
     inkscape:cy="235.50251"
     inkscape:window-width="1854"
     inkscape:window-height="1131"
     inkscape:window-x="0"
     inkscape:window-y="0"
     inkscape:window-maximized="1"
     inkscape:current-layer="svg6" />
  <title
     id="title2">Heraldic Cross Moline</title>
  <rect
     style="fill:#c83737;stroke-width:0.972"
     id="rect168"
     width="595"
     height="595"
     x="0"
     y="0" />
  <path
     d="m 257.62364,508.33566 a 38.693375,38.693375 0 0 1 -38.69425,38.6925 44.679268,44.679268 0 0 0 77.38675,0 44.679268,44.679268 0 0 0 77.38675,0 38.693375,38.693375 0 0 1 -38.69425,-38.6925 v -171.3075 h 171.3075 a 38.693375,38.693375 0 0 1 38.6925,38.69425 44.679268,44.679268 0 0 0 0,-77.38675 44.679268,44.679268 0 0 0 0,-77.38675 38.693375,38.693375 0 0 1 -38.6925,38.69425 H 335.00864 V 88.335663 a 38.693375,38.693375 0 0 1 38.69425,-38.693375 44.679268,44.679268 0 0 0 -77.38675,0 44.679268,44.679268 0 0 0 -77.38675,0 38.693375,38.693375 0 0 1 38.69425,38.693375 V 259.64316 H 86.316144 a 38.693375,38.693375 0 0 1 -38.693375,-38.69425 44.679268,44.679268 0 0 0 0,77.38675 44.679268,44.679268 0 0 0 0,77.38675 38.693375,38.693375 0 0 1 38.693375,-38.69425 H 257.62364 Z"
     id="path4"
     style="fill:#ffffff;stroke-width:0.175" />
</svg>
